<?xml version="1.0" encoding="UTF-8"?>
<!--Generator: Apple Native CoreSVG 228-->
<!DOCTYPE svg
PUBLIC "-//W3C//DTD SVG 1.1//EN"
       "http://www.w3.org/Graphics/SVG/1.1/DTD/svg11.dtd">
<svg version="1.1" xmlns="http://www.w3.org/2000/svg" xmlns:xlink="http://www.w3.org/1999/xlink" width="42.4805" height="31.7417">
 <g>
  <rect height="31.7417" opacity="0" width="42.4805" x="0" y="0"/>
  <path d="M35.7617 9.03981L35.7617 13.8406C35.1534 13.7158 34.494 13.9246 34.0234 14.3306L34.0234 12.8679L8.08594 12.8679L8.08594 22.6433C8.08594 24.0398 8.82812 24.7625 10.1953 24.7625L27.7393 24.7625C27.8186 25.5162 28.3241 26.1636 28.9774 26.5007L10.1562 26.5007C7.63672 26.5007 6.35742 25.2312 6.35742 22.7312L6.35742 9.03981C6.35742 6.53981 7.63672 5.27028 10.1562 5.27028L31.9531 5.27028C34.4824 5.27028 35.7617 6.54958 35.7617 9.03981ZM16.1523 18.7175L16.1523 21.0613C16.1523 21.7644 15.6543 22.2625 14.9121 22.2625L11.8262 22.2625C11.084 22.2625 10.5859 21.7644 10.5859 21.0613L10.5859 18.7175C10.5859 18.0144 11.084 17.5164 11.8262 17.5164L14.9121 17.5164C15.6543 17.5164 16.1523 18.0144 16.1523 18.7175ZM10.1953 6.99879C8.82812 6.99879 8.08594 7.72145 8.08594 9.1277L8.08594 10.0359L34.0234 10.0359L34.0234 9.1277C34.0234 7.72145 33.2617 6.99879 31.9238 6.99879Z" fill="#ffffff" fill-opacity="0.85"/>
  <path d="M38.7402 29.8015C40.1172 27.4187 40.8594 24.7332 40.8594 21.9207C40.8594 19.1179 40.1172 16.4324 38.7402 14.0496C38.3105 13.3074 37.168 13.864 37.6367 14.6843C38.8867 16.8132 39.5898 19.2937 39.5898 21.9207C39.5898 24.5476 38.8867 27.0379 37.6367 29.1668C37.168 29.9773 38.3105 30.5437 38.7402 29.8015Z" fill="#ffffff" fill-opacity="0.85"/>
  <path d="M35.9668 28.1218C37.1191 26.198 37.6855 24.1082 37.6855 21.9207C37.6855 19.7429 37.1191 17.6531 35.9668 15.7293C35.5566 15.0066 34.4336 15.5925 34.9023 16.3836C35.8496 17.9851 36.4258 19.9187 36.4258 21.9207C36.4258 23.9324 35.8496 25.866 34.9023 27.4675C34.4336 28.2586 35.5566 28.8445 35.9668 28.1218Z" fill="#ffffff" fill-opacity="0.85"/>
  <path d="M33.252 26.4617C34.082 25.114 34.541 23.5808 34.541 21.9207C34.541 20.2703 34.082 18.7371 33.252 17.3894C32.793 16.6765 31.7188 17.3113 32.168 18.0632C32.8516 19.1961 33.2812 20.5242 33.2812 21.9207C33.2812 23.3269 32.8516 24.655 32.168 25.7879C31.7188 26.53 32.793 27.1746 33.252 26.4617Z" fill="#ffffff" fill-opacity="0.85"/>
  <path d="M30.4883 24.9187C31.1719 24.0007 31.4844 22.9851 31.4844 21.9207C31.4844 20.866 31.1719 19.8504 30.4883 18.9324C29.9902 18.2586 28.9844 18.991 29.4922 19.7039C29.9805 20.3875 30.2148 21.1394 30.2148 21.9207C30.2148 22.7117 29.9805 23.4636 29.4922 24.1375C28.9844 24.8504 29.9902 25.5925 30.4883 24.9187Z" fill="#ffffff" fill-opacity="0.85"/>
 </g>
</svg>
